# xmcd CD database file
#
# Track frame offsets:
#	150
#	17008
#	39736
#	65116
#	88253
#	109105
#	130370
#	153239
#	188295
#	215502
#	237802
#	255497
#
# Disc length: 3909 seconds
#
# Revision: 4
# Processed by: cddbd v1.5.2PL0 Copyright (c) Steve Scherf et al.
# Submitted via: CDex 1.51
#
DISCID=9f0f430c
DTITLE=Chris Rea - The Road To Hell And Back CD 01
DYEAR=2006
DGENRE=Rock
TTITLE0=Jazzee Blue
TTITLE1=That's The Way It Goes
TTITLE2=Where The Blues Come From
TTITLE3=Josephine
TTITLE4=Work Gang
TTITLE5=Head Out On The Highway
TTITLE6=Easy Rider
TTITLE7='Til The Morning
TTITLE8=Stony Road
TTITLE9=KKK Blues
TTITLE10=Julia
TTITLE11=Stainsby Girls
EXTD=c. 2006 Navybeck - Polydor - JB Jazzee Blue YEAR: 2006
EXTT0=
EXTT1=
EXTT2=
EXTT3=
EXTT4=
EXTT5=
EXTT6=
EXTT7=
EXTT8=
EXTT9=
EXTT10=
EXTT11=
PLAYORDER=
